/* XPM */
static char *e8bb401788ab40a7ba8fac6e6a85b354VNqe26hv6rvLGE9w[] = {
/* columns rows colors chars-per-pixel */
"32 32 28 1 ",
"  c #353637",
". c #0B0B0C",
"X c #0B0B13",
"o c #98322C",
"O c #E7994E",
"+ c #C8D96C",
"@ c #6A6A6C",
"# c #717A86",
"$ c #868685",
"% c #565862",
"& c #90390C",
"* c #E99B36",
"= c #6E7575",
"- c #3E4246",
"; c #6C6956",
": c #505152",
"> c #3C4D72",
", c #8C6A0D",
"< c #501F0D",
"1 c #8C8C37",
"2 c #8B8677",
"3 c #413F48",
"4 c #3C463D",
"5 c #383B48",
"6 c #644D35",
"7 c #C2B142",
"8 c #78790D",
"9 c white",
/* pixels */
" ..XoO++ @@@#@@$%@@#@@$..XoO++  ",
" .X&*++*.=@===@$-%@@@@;.X&*++*. ",
" X&*++*..=::==@$-===@@@X&*++*.. ",
" &*++*..X:=====@>===@:=&*++*..X ",
" ,++*.XX<=@=@@@$-@@====,++*.XX< ",
" 1+*.XX&,%:@=@#2-:=@=:=1+*.XX&, ",
" 1*.XX&*1%>%--:#--:-%::1*.XX&*1 ",
" ,.XX&*+1:--3--:45-:---,.XX&*+1 ",
" .XX&*++ @@@@@2$@##@@@@.XX&*++  ",
" XX&*++*.:=@##=@==@@=@#XX&*++*. ",
" X&*++*..====@=====:@=@X&*++*.. ",
" &*++*..X@#@@===%=@#==@&*++*..X ",
" ,++*.XX<=@=:@@====@@=@,++*.XX< ",
" 1+*.XX&,:@@===:-@@===@1+*.XX&, ",
" 1*.XX&*1--:%4::%:-@@:>1*.XX&*1 ",
" ,.XX&*+13---:----::-:4,.XX&*+1 ",
" .XX&*++ #2$@###@@@2:@#.XX&*++  ",
" XX&*++*.@@==@=@=@#$-%=XX&*++*. ",
" X&*++*..===@:==@=@$:@=X&*++*.. ",
" &*++*..X==@@=@====@>=;&*++*..X ",
" ,++*.XX<@=@=@=@=@@$:=;,++*.XX< ",
" 1+*.XX&,--==@::==@#-:@1+*.XX&, ",
" 1*.XX&*1:::::::-:%@-:-1*.XX&*1 ",
" ,.XX&*+13-----:3---:-4,.XX&*+1 ",
" .XX&*++ @@$:#@#@#2#@#@.XX&*++  ",
" XX&*++*.=@$::=##@::===XX&*++*. ",
" X&*++*..@@$-@=@%@=@#%@X&*++*.. ",
" &*++*..X==@>=@#====@@@&*++*..X ",
" ,++*.XX<:@$:=========#,++*.XX< ",
" 1+*.XX&,=##-:=====-===1+*.XX&, ",
" 1*.XX&*1::#::-%%%%%:%=1*.XX&*1 ",
" 6..X&7+8:-:-:-::-:----6..X&7+8 "
};
