/* XPM */
static char *a0d1401654a94003ec9a3672ee5dfdd94mS4zna4ciAQxwRC[] = {
/* columns rows colors chars-per-pixel */
"32 32 67 1 ",
"  c #784D3E",
". c #855544",
"X c #8F5D4A",
"o c #845041",
"O c #6E4236",
"+ c #57332B",
"@ c #62392F",
"# c #986651",
"$ c #79483C",
"% c #6B3F33",
"& c #814F40",
"* c #5F382F",
"= c #754539",
"- c #5D342D",
"; c #4D2A24",
": c #4A2821",
"> c #4E2B24",
", c #694034",
"< c #814C3F",
"1 c #673931",
"2 c #542F28",
"3 c #693E33",
"4 c #5E372E",
"5 c #734339",
"6 c #64352D",
"7 c #60342C",
"8 c #552E28",
"9 c #75483A",
"0 c #733F36",
"q c #5E332C",
"w c #623A30",
"e c #78473B",
"r c #7B4C3E",
"t c #572F28",
"y c #43231F",
"u c #522A26",
"i c #4B2722",
"p c #5C2F29",
"a c #623B31",
"s c #4F2D25",
"d c #875444",
"f c #512C26",
"g c #8B5647",
"h c #472620",
"j c #522F27",
"k c #6D4135",
"l c #58342B",
"z c #78453A",
"x c #844F40",
"c c #592F28",
"v c #6C3F34",
"b c #633A2F",
"n c #4B2923",
"m c #9B6955",
"M c #4F2A24",
"N c #6E4538",
"B c #572E27",
"V c #875545",
"C c #492721",
"Z c #4D2822",
"A c #542C26",
"S c #73493B",
"D c #693931",
"F c #512B25",
"G c #7E4D40",
"H c #73473A",
"J c white",
/* pixels */
" .Xo X     O+@X # #  . X$  .   X",
"%&*=-;*%**%%:>*,%=**==<1%%*<=*%*",
"*,%%=*2&1222::***,,,<2=*=***2345",
"**;2%,=--222678-=*%2,&9<*00q%%*2",
"82w2e2-==%=*>>*2-,=%=%*;88*=2;12",
"*=*r%*2*2%==>t,,12;22112=%<<-2-*",
"*&9,==%1*9&,>7%1222*--=*22w,,&,,",
"yuipyyyyiyyuuuyyyyuypyyyyiyyyyuy",
"XX   X XX.aX #. .  +s..   .  .X#",
"*=,9d*%=**%=*=****-::*=%*=*=%*22",
"%**242-2*%**%11w***>f**;%<*2%2*=",
"**8==%0;2e**0=2%*g0>h2*%<212*%%-",
"<4w-2*,*-<*,,2%==*2j7,%**9,,1%*%",
"%*2,k&**=-0%8,<<%-<>f%522%*2-%21",
"12=*-18====**%42;18::*=-%99***%*",
"yyypupypyypipyyuyyiyuuuupypuluyl",
" a. @z #.... X  .  #$o  # #.#   ",
"*1**>7===%***=%2,2=**%%-k=%12%*%",
"-21=:>=*2-112<=q<g,&&g=%*29=**2=",
"1w1-j>=**=*%2248%=****<1*2**&,*<",
"1==2ht*<=,**,x021;-02*-2*01%%=**",
"%*w&j>0=*,*1;2*2;%-1*21;;c**22;=",
"***=fh%4q-22*=**ww%2-1**%q,%1*%*",
"piuyyuyyyuuyyyyuyupyilvbiyiylyii",
" .  a X a  #a.    ...  X   nmX. ",
"**8ww***2%==*w**%=%2*%=*%=%MN=%2",
"*52=<0=%299,,**%;*=*%-12222BV*k,",
"2-223C1=**&-1k21*****%=%%=*ZN2*=",
"2*==%<<20q8*;1*9==%<2**=&k,AS2**",
"-*=***2%2-;D;****,***2;F%*;MG=*2",
"2=*%<2==%<%-228=****qe**1*2AH281",
"iyyyuyyiiyuyypypyiuyuyyyyyiypiuy"
};
