/* XPM */
static char *_fa2c0a176654d36d5c0249ff135188dqDoxeahpsBoAgVWJ[] = {
/* columns rows colors chars-per-pixel */
"32 32 39 1 ",
"  c #353568",
". c #316464",
"X c #285B5B",
"o c #404073",
"O c #484848",
"+ c #505050",
"@ c #3E3E71",
"# c #37376A",
"$ c #609360",
"% c #989898",
"& c gray62",
"* c #909090",
"= c #888888",
"- c gray47",
"; c #808080",
": c #628899",
"> c gray63",
", c #606060",
"< c #9C699C",
"1 c #6D6DA0",
"2 c #5F5F5F",
"3 c #585858",
"4 c #A16E6E",
"5 c #235656",
"6 c #A0A0A0",
"7 c gray44",
"8 c #A67373",
"9 c #A2A2A2",
"0 c #686868",
"q c #646464",
"w c #7399AA",
"e c #7878AB",
"r c #38386B",
"t c #2F6262",
"y c gray40",
"u c #3A3A6D",
"i c #7DA3B4",
"p c #6D6D6D",
"a c white",
/* pixels */
" .XXooOOOO++oo@@o.XXooOOOooXoo #",
" $$$%%&&&*==-;+#$$::-*>&&&$$$$.#",
" -,,<1111123333#$4,,<,111112,,3#",
" 3## ######### o$ ### ######## 5",
" 6-;;;;;:$::$:.o$7$:;8;:$::::$X5",
"o97703qq,<888<3#w88<<<3,04<8<e.#",
" =1112333311111#w<1111233331111#",
" X####### ####@r$@#####o@# ####o",
"#$:::::::::::;3o$,7:::$$$:7:::.X",
"@><44444<8<<<<+#w8<<8<44434<8<3#",
" *1123333111111#-<1111123333111r",
" X###### #######oo######o@@@###o",
" $::::::::::::t5+$:::::$$$$:7:.o",
"X><<<4444<8<<<+5<><<<4444<<<<<3#",
" *1111y,,1111115o*1111y,,111111#",
" .@@@@@@@@uuuuu5@X#####o@@@@@@##",
"#i$7777777:777$5o$::::$$:::7..Xo",
"@>7444444<8<<<+5<><<84444444<<3#",
" *1y,,,,,1111115o*1111y,,,,,111r",
" X#@@@@@@@@uuuu5@X###@@@@@@@@##+",
" $::777877:7::X@+$::;8777:7..7.3",
"X><444447ee<<<+#;98<<870074<8<3r",
"@*11y,,,11111115<*11111y,,,1111r",
" XrX@@@@@@uuuuu5@X####@@@@@@###o",
" $$0,77787::::$5o$:::$:77470::.o",
"X><444444074<8+5<944444444p1e<3#",
"@*11yyy,,,,,1115o=1y,,,,7yy1111#",
" Xr55555@uuu@uu5o5#####ot5555##r",
" $$74444,::::7t5.$:-8-:$0333,0.X",
"+64447e7ee<<<4+ $88<<7ee<4444<3#",
"@=y,,111111111y#7<11111111y,,11r",
"################r###############"
};
